<?xml version="1.0" encoding="utf-8"?>
<!-- Generator: Adobe Illustrator 27.2.0, SVG Export Plug-In . SVG Version: 6.00 Build 0)  -->
<svg version="1.1" id="Layer_1" xmlns="http://www.w3.org/2000/svg" xmlns:xlink="http://www.w3.org/1999/xlink" x="0px" y="0px"
	 viewBox="0 0 100 60" style="enable-background:new 0 0 100 60;" xml:space="preserve">
<style type="text/css">
	.st0{fill:#FFFFFF;}
	.st1{fill:#ED671C;}
	.st2{fill:#91C300;}
	.st3{fill:#00B4F1;}
	.st4{fill:#F8682C;}
	.st5{fill:#FFC300;}
</style>
<g transform="translate(0 -992.36)">
	<g transform="matrix(.15762 0 0 .15762 -28.891 1028)">
		<g>
			<path d="M462.7,147c-7.9,0-14.6-3.2-19.3-9.2c-4.9-6.5-8.1-18.1-8.1-29c0-11.8,3.6-22.6,10-29.9c4.5-5.2,10.6-7.9,18.2-7.9
				c9.2,0,15.3,4,19.3,12.7l-0.6-34.6l16.3-0.3l0.3,96.3l-15.3,0.3l-0.3-14.6C479.4,142.1,472.8,147,462.7,147z M467.9,85.4
				c-9.6,0-14.9,8.6-14.9,24.3c0,15.4,5,23.6,14.5,23.6c8.3,0,14.8-7.8,14.8-17.8v-12.1c0-6.1-1-9.5-3.7-12.8
				C475.8,87.2,472,85.4,467.9,85.4z M697.2,147c-9,0-17-2.3-22.9-6.7c-3.9-3-5.7-5.8-7.5-11.3l15.2-3.3c3.3,6.4,7.4,8.6,15.8,8.6
				c8.9,0,14.1-3.1,14.1-8.5c0-3.3-2.9-5.9-7.5-6.7l-13-2.6c-14.8-2.8-21.7-9.5-21.7-21.2c0-5.7,2-11.1,5.7-15.1
				c4.9-5.4,11.9-7.9,22-7.9c14.8,0,24.3,5.8,27.7,16.6l-14.6,3.4c-2.2-5.9-5.7-8.1-13-8.1c-7.4,0-12.2,2.9-12.2,7.3
				c0,4,3,6.4,10,7.8l15.3,3.2c11.8,2.3,18.1,9.5,18.1,20.9C728.4,137.8,716.1,147,697.2,147z M539.8,147c-11,0-19.8-4.6-25.6-13.2
				c-4.7-6.9-7.1-15-7.1-24.2c0-21.8,13.8-37,33.6-37c12.2,0,20.8,4.7,27.2,14.7c4.2,6.9,6,13.4,6,22.6
				C573.8,131.7,559.8,147,539.8,147z M540.6,86.2c-10.3,0-16,8.3-16,23.4c0,15,5.7,23.6,15.7,23.6c10.2,0,15.8-8.5,15.8-23.9
				C556.2,94.4,550.7,86.2,540.6,86.2z M635.1,145.5l-13.1-50l-12.1,49.8l-15.1,0.2l-22.2-71.2l17.3-0.4l14.4,48l11.5-47.8l14.9-0.2
				l12.8,48l13.1-47.8l13.8-0.2l-20.6,71.6H635.1z M410.9,145.5l-0.3-44.7c0-8.5-4.1-13.8-10.8-13.8c-5.2,0-10.1,3.3-12.8,8.6
				c-1.7,3.4-2.6,7.7-2.6,13.1v36.4l-16.3,0.3l-0.3-71.3l14.9-0.3l0.3,16.7c5.3-12.9,11.7-18.2,21.4-18.2c8.4,0,16.5,4.4,19.7,10.7
				c2.2,4.2,3.1,8.9,3.1,16.3v46.1h-16.3V145.5z M338.6,145.5l-0.3-71.3l16.3-0.3l0.3,71.6H338.6z M290,145.5l-19.5-70.8l-16.8,70.5
				l-18,0.2l-26.5-96.3l18.7-0.4l18.7,70.2l16.7-70l17.9-0.2l19.5,70.2l17.5-70l15.6-0.2l-25.4,96.7H290V145.5z M338.6,66.2l-0.3-17
				l16.3-0.3l0.3,17.3H338.6z M391.8,40.2c-4.6,0-7.1-2.6-7.1-7.5V18.4l-3.9,0.3l-0.3-3.2l4.5-0.3l-0.2-5.6l3.7-0.6l0.3,6.6l5-0.3
				l0.3,3.2l-5.6,0.3l0.3,14.5c0,2.3,1.2,3.4,3.5,3.4c0.8,0,1.5,0,2.8-0.3l0.4,3.2C393.7,40.1,392.9,40.2,391.8,40.2z M329,40.1
				c-3.4,0-6.2-0.9-8.3-2.7c-1.3-1.1-2-2.2-2.5-4.3l3.7-1.1c0.8,1.6,1.1,2.2,1.8,2.8c1.3,1,3.5,1.7,5.6,1.7c3.1,0,5.3-1.4,5.3-3.5
				c0-1.7-1.3-2.8-3.8-3.3l-5-0.9c-4.2-0.8-6.6-3.3-6.6-6.8c0-4.4,3.7-7.3,9.2-7.3c5.1,0,8.4,2.2,9.6,6.2l-3.6,1.1
				c-1.4-2.6-3.2-3.7-6.1-3.7s-4.8,1.3-4.8,3.2c0,1.6,1.1,2.5,3.4,3l4.7,0.8c5,0.9,7.5,3.3,7.5,7.3C339.1,37.1,335,40.1,329,40.1z
				 M267.4,40.1c-6.3,0-10.3-5-10.3-12.8c0-7.7,4.2-12.8,10.5-12.8c5,0,8.3,3,9.3,8.5l-3.6,1c-0.7-2.1-1-2.9-1.6-3.7
				c-1-1.4-2.5-2.1-4.2-2.1c-3.7,0-6,3.5-6,9c0,5.7,2.2,9.2,5.9,9.2c2.8,0,4.7-2,5.4-5.6l3.7,0.3c-0.3,3.3-1,4.8-2.6,6.3
				C272.3,39.3,270.2,40.1,267.4,40.1z M352.4,40.1c-6.4,0-10.6-5.2-10.6-12.8c0-7.5,4.5-12.7,11-12.7c3.2,0,6,1.2,7.9,3.6
				c1.9,2.3,2.9,5.6,2.9,9.5C363.7,34.8,358.9,40.1,352.4,40.1z M352.7,18.2c-1.8,0-3.6,1-4.6,2.5s-1.6,3.8-1.6,6.5
				c0,5.9,2.3,9.2,6.3,9.2c3.9,0,6.3-3.4,6.3-9c0-3.1-0.5-5.2-1.6-6.8C356.3,19.1,354.5,18.2,352.7,18.2L352.7,18.2z M305.3,40.1
				c-6.4,0-10.6-5.2-10.6-12.8c0-7.5,4.5-12.7,11-12.7c6.6,0,10.9,5.1,10.9,13C316.5,34.8,311.8,40.1,305.3,40.1z M305.5,18.2
				c-1.8,0-3.6,1-4.6,2.5s-1.6,3.8-1.6,6.5c0,5.9,2.3,9.2,6.3,9.2c3.9,0,6.3-3.4,6.3-9c0-3.1-0.5-5.2-1.6-6.8
				C309.1,19.1,307.3,18.2,305.5,18.2z M281.7,39.5l-0.3-24l3.5-0.3l0.3,5.8c0.5-2.5,1-3.2,1.9-4.3c1.1-1.4,3-2.2,4.9-2.2
				c0.3,0,0.8,0,1.4,0.1l0.3,3.8l-1,0.3c-4,0-6.9,3.3-7,7.9v12.8L281.7,39.5L281.7,39.5z M248.3,39.5l-0.3-24l4-0.3l0.3,24.3H248.3z
				 M369.5,39.5l-0.3-21.1l-3.9,0.3l-0.3-3.2l4.5-0.3c-0.2-2.6-0.1-3.6,0.5-5.1c0.9-2.4,3.4-3.9,6.6-3.9c1,0,1.9,0.1,3.6,0.3
				l0.3,3.3c-0.3,0-2,0-2.5,0c-2.3,0-3.7,0.7-4.2,2c-0.4,1-0.4,1.1-0.4,3.7l5.4-0.3l0.3,3.2l-6.1,0.3l0.3,20.8
				C373.3,39.5,369.5,39.5,369.5,39.5z M236.7,39.5l-0.3-28.3l-9.8,28l-3,0.2l-10.8-28.1l0.6,27.8l-3.7,0.3l-0.3-32.3l6.3-0.3
				l9.9,25.8L234.5,7l6.1-0.2l0.3,32.6h-4.2V39.5z M248.2,11.6l-0.3-4.4l4.3-0.3l0.3,4.4v0.3H248.2z"/>
			<path class="st0" d="M376.6,6.5c1,0,1.9,0.1,3.5,0.3v3c-1-0.3-1.5-0.3-2.2-0.3c-2.4,0-4,0.8-4.5,2.3c-0.4,1-0.4,1.2-0.4,3.8h5.8
				v2.9H373v20.8h-3.4V18.4h-4.2v-2.9h4.2c0.1-2.9,0.2-3.9,0.8-5.3C371.1,7.9,373.5,6.5,376.6,6.5L376.6,6.5 M252.1,7.2v4.1h-4V7.2
				H252.1 M240.6,7.2v32h-3.9v-28l-10.4,27.9h-2.7l-10.5-27.9v27.9h-3.4v-32h6l9.6,25.6l9.5-25.6h5.8 M388.6,9.3v6.2h5.3v2.9h-5.3
				v14.8c0,2.4,1.3,3.7,3.8,3.7c0.9,0,1.5,0,2.8-0.3v2.9c-1.6,0.2-2.4,0.3-3.5,0.3c-4.5,0-6.8-2.4-6.8-7.2V18.4h-4.2v-2.9h4.2l0.1-6
				L388.6,9.3 M292,14.8c0.3,0,0.8,0,1.3,0.1v3.5c-0.2,0-0.4,0-0.7,0c-4.1,0-7.2,3.4-7.3,8.2v12.5h-3.7V15.5h3.2V21
				c1.2-2.4,1.6-3.1,2.4-4.1C288.4,15.6,290.2,14.8,292,14.8L292,14.8 M352.8,14.9c6.4,0,10.6,5,10.6,12.7c0,7.1-4.6,12.2-10.9,12.2
				c-6.2,0-10.3-5-10.3-12.5C342.1,19.9,346.5,14.9,352.8,14.9L352.8,14.9 M352.7,36.8c4.1,0,6.6-3.5,6.6-9.4c0-3.2-0.5-5.3-1.7-7
				c-1.2-1.6-3.1-2.5-5-2.5l0,0c-1.9,0-3.8,1-4.9,2.6c-1.1,1.5-1.6,3.8-1.6,6.7C346.1,33.3,348.5,36.8,352.7,36.8 M328.4,14.9
				L328.4,14.9L328.4,14.9L328.4,14.9 M305.6,14.9c6.4,0,10.6,5,10.6,12.7c0,7.1-4.6,12.2-10.9,12.2c-6.2,0-10.3-5-10.3-12.5
				C294.9,19.9,299.3,14.9,305.6,14.9L305.6,14.9 M305.5,36.8c4.1,0,6.6-3.5,6.6-9.4c0-3.2-0.5-5.3-1.7-7c-1.2-1.6-3.1-2.5-5-2.5
				l0,0c-1.9,0-3.8,1-4.9,2.6c-1.1,1.5-1.6,3.8-1.6,6.7C299,33.3,301.4,36.8,305.5,36.8 M328.4,14.9c4.9,0,8.2,2.1,9.3,6l-3.4,0.7
				c-1.1-2.5-3-3.7-6-3.7c-3.1,0-5.1,1.4-5.1,3.5c0,1.8,1.2,2.8,3.7,3.3l4.7,0.8c4.8,0.9,7.2,3.2,7.2,7c0,4.3-3.9,7.3-9.7,7.3
				c-3.4,0-6-0.9-8.1-2.6c-1.2-1.1-1.9-2.1-2.4-4.1l3.5-0.7c0.4,1.3,0.8,2.1,1.5,2.7c1.3,1.1,3.6,1.8,5.8,1.8c3.3,0,5.6-1.5,5.6-3.8
				c0-1.9-1.4-3.1-4.1-3.7l-5-0.9c-4-0.8-6.4-3.2-6.4-6.5C319.4,17.7,323,14.9,328.4,14.9 M267.6,14.9L267.6,14.9c4.8,0,8,2.9,9,8.3
				l-3.3,0.6c-0.3-1.8-0.6-2.7-1.2-3.6c-1.1-1.4-2.6-2.3-4.5-2.3c-3.9,0-6.3,3.6-6.3,9.4c0,6,2.3,9.5,6.2,9.5c3,0,5-2,5.8-5.9
				l3.3,0.6c-0.6,2.9-1.2,4.3-2.8,5.8c-1.7,1.7-3.7,2.5-6.4,2.5c-6,0-10-4.9-10-12.4C257.5,19.9,261.5,14.9,267.6,14.9 M252,15.5
				v23.7h-3.7V15.5H252 M482.6,49.2h16v96h-15V131c-4.5,10.8-10.8,15.7-20.9,15.7c-7.8,0-14.4-3.2-19-9.1
				c-4.8-6.3-8.1-17.9-8.1-28.8c0-11.7,3.6-22.5,9.9-29.7c4.5-5.2,10.5-7.8,18-7.8c9.1,0,15.1,4,19,12.5V49.2 M467.5,133.6
				c8.5,0,15.1-7.9,15.1-18.1v-12.1c0-6.2-1-9.6-3.7-13c-2.9-3.5-6.8-5.3-10.9-5.3l0,0c-9.8,0-15.3,8.8-15.3,24.6
				C452.7,125.2,457.9,133.6,467.5,133.6 M354.6,49.2v16.7h-16V49.2H354.6 M333.7,49.2l-25.6,96H290l-19.1-70.6l-17.4,70.6h-17.7
				l-26.2-96H228l18.4,70l17.3-70h17.6l19.1,70l18.1-70L333.7,49.2 M697.3,72.8L697.3,72.8c14.7,0,24,5.6,27.3,16.4l-14.4,3
				c-1.9-5.8-5.6-8.1-13-8.1c-7.6,0-12.5,3-12.5,7.6c0,4.2,3,6.6,10.2,8.1l15.3,3.2c11.8,2.3,17.9,9.4,17.9,20.6
				c0,14.1-12.1,23-31,23c-9.1,0-16.8-2.3-22.8-6.6c-3.7-2.9-5.6-5.6-7.3-11.1l15-2.9c3,6.3,7.1,8.6,15.7,8.6
				c9.1,0,14.4-3.2,14.4-8.8c0-3.5-3-6.2-7.8-7.1l-13-2.6c-14.7-2.7-21.5-9.4-21.5-20.9c0-5.6,2-10.9,5.6-14.8
				C680.5,75.2,687.4,72.8,697.3,72.8 M540.6,72.8c11.9,0,20.6,4.6,26.9,14.5c4.2,6.8,5.9,13.2,5.9,22.5c0,21.7-13.8,36.9-33.7,36.9
				c-10.9,0-19.6-4.5-25.3-13.1c-4.7-6.9-7.1-15-7.1-24C507.4,87.9,521.1,72.8,540.6,72.8L540.6,72.8 M540.4,133.6
				c10.4,0,16.1-8.6,16.1-24.2c0-15.3-5.6-23.5-15.8-23.5c-10.4,0-16.3,8.5-16.3,23.8S530.1,133.6,540.4,133.6 M404.4,72.8
				c8.2,0,16.3,4.3,19.4,10.5c2.2,4.2,3,8.8,3,16.1v45.8h-16v-44.3c0-8.6-4.3-14.1-11.1-14.1c-5.3,0-10.4,3.5-13.1,8.8
				c-1.7,3.5-2.6,7.8-2.6,13.2v36.4h-16v-71h14.5v16.4C388.6,77.8,394.8,72.8,404.4,72.8L404.4,72.8 M670.4,74.2l-20.9,71h-14.4
				l-12.8-49.8l-12.7,49.8h-14.8l-21.9-71h17L604,122l12.1-47.8h14.5l12.5,47.8l13.7-47.8H670.4 M354.6,74.2v71h-16v-71H354.6
				 M376.6,5.8c-3.3,0-6,1.6-6.9,4.2c-0.5,1.4-0.7,2.3-0.8,4.9h-3.6h-0.6v0.6v2.9V19h0.6h3.5v20.2v0.6h0.6h3.4h0.6v-0.6V19h5.1h0.6
				v-0.6v-2.9v-0.6h-0.6h-5.1c0-2,0-2.1,0.4-2.9c0.4-1.3,1.8-1.9,3.9-1.9c0.7,0,1.1,0,2,0.3l0.8,0.2V9.8v-3V6.3L380,6.2
				C378.6,6,377.7,5.8,376.6,5.8L376.6,5.8z M252.8,6.5h-0.6h-4h-0.6v0.6v4.1v0.6h0.6h4h0.6v-0.6v-4V6.5L252.8,6.5z M241.3,6.5h-0.6
				h-5.9h-0.4l-0.2,0.4l-8.9,24l-9-24l-0.2-0.4h-0.4h-6h-0.6v0.6v32v0.6h0.6h3.4h0.6v-0.6V14.7l9.2,24.7l0.2,0.4h0.4h2.7h0.4
				l0.2-0.4l9.1-24.6v24.4v0.6h0.6h3.9h0.6v-0.6v-32V6.5H241.3z M389.3,8.6l-0.7,0.1L385.1,9h-0.6v0.6l-0.1,5.3h-3.6h-0.6v0.6v2.9
				V19h0.6h3.5v13.6c0,5.1,2.6,7.8,7.4,7.8c1.1,0,1.9,0,3.6-0.3l0.5-0.1v-0.5v-2.9v-0.8l-0.7,0.1c-1.3,0.2-1.9,0.3-2.7,0.3
				c-2.2,0-3.2-1-3.2-3.1V19h4.7h0.6v-0.6v-2.9v-0.6H394h-4.7V9.3V8.6L389.3,8.6z M292,14.2c-2,0-3.9,0.9-5.1,2.3
				c-0.5,0.6-0.9,1.2-1.3,1.9v-2.9v-0.6H285h-3.2h-0.6v0.6v23.7v0.6h0.6h3.7h0.6v-0.6V26.6c0.1-4.4,2.9-7.6,6.7-7.6
				c0.2,0,0.4,0,0.6,0l0.7,0.1v-0.7v-3.5v-0.6l-0.6-0.1C292.9,14.2,292.3,14.2,292,14.2L292,14.2z M352.8,14.2
				c-6.7,0-11.3,5.4-11.3,13c0,7.9,4.4,13.2,11,13.2c6.7,0,11.6-5.4,11.6-12.8c0-3.9-1-7.3-3-9.7C359,15.5,356.2,14.2,352.8,14.2
				L352.8,14.2z M352.7,36.1c-5.2,0-5.9-5.6-5.9-8.9c0-2.7,0.5-4.9,1.5-6.4c1-1.4,2.7-2.3,4.4-2.3c1.7,0,3.4,0.9,4.5,2.3
				c1.1,1.5,1.6,3.6,1.6,6.6C358.7,32.9,356.5,36.1,352.7,36.1L352.7,36.1z M328.4,14.2c-5.7,0-9.6,3.1-9.6,7.6
				c0,3.7,2.6,6.3,6.9,7.2l5,0.9c3.6,0.7,3.6,2.4,3.6,3c0,1.9-2,3.2-4.9,3.2c-2.1,0-4.2-0.6-5.4-1.6c-0.6-0.5-1-1.1-1.3-2.4
				l-0.2-0.6l-0.6,0.1l-3.5,0.7l-0.7,0.1l0.2,0.7c0.6,2.2,1.3,3.3,2.6,4.4c2.1,1.9,5,2.8,8.5,2.8c6.2,0,10.4-3.2,10.4-7.9
				c0-4.2-2.6-6.7-7.7-7.6L327,24c-2.8-0.5-3.2-1.7-3.2-2.7c0-1.7,1.7-2.9,4.5-2.9s4.5,1,5.5,3.3l0.2,0.5l0.5-0.1l3.4-0.7l0.7-0.1
				l-0.2-0.7C337.1,16.5,333.6,14.2,328.4,14.2L328.4,14.2z M305.6,14.2c-6.7,0-11.3,5.4-11.3,13c0,7.9,4.4,13.2,10.9,13.2
				c6.7,0,11.6-5.4,11.6-12.8c0-3.9-1-7.3-3-9.7C311.8,15.5,309,14.2,305.6,14.2L305.6,14.2z M305.5,36.1c-5.2,0-5.9-5.6-5.9-8.9
				c0-2.7,0.5-4.9,1.5-6.4c1-1.4,2.7-2.3,4.4-2.3c1.7,0,3.4,0.9,4.5,2.3c1.1,1.5,1.6,3.6,1.6,6.6C311.5,32.9,309.3,36.1,305.5,36.1
				L305.5,36.1z M267.6,14.2c-6.5,0-10.8,5.3-10.8,13.1c0,7.9,4.2,13.1,10.6,13.1c2.8,0,5.1-0.9,6.8-2.7c1.6-1.6,2.3-3.1,2.9-6.1
				l0.1-0.6l-0.6-0.1l-3.3-0.6l-0.6-0.1l-0.1,0.6c-0.7,3.6-2.4,5.4-5.1,5.4c-3.6,0-5.6-3.2-5.6-8.9c0-5.4,2.2-8.7,5.7-8.7
				c1.6,0,3,0.7,4,2c0.5,0.8,0.8,1.5,1.1,3.3l0.1,0.6l0.6-0.1l3.3-0.6l0.6-0.1l-0.1-0.6C276.2,17.4,272.8,14.2,267.6,14.2
				L267.6,14.2L267.6,14.2z M252.6,14.9H252h-3.7h-0.6v0.6v23.7v0.6h0.6h3.7h0.6v-0.6V15.5V14.9L252.6,14.9z M482,48.6v0.6v32.1
				c-4-7.2-9.9-10.5-18.4-10.5c-7.7,0-13.9,2.7-18.5,8C438.7,86,435,97,435,108.8c0,10.9,3.3,22.7,8.2,29.2
				c4.8,6.1,11.5,9.3,19.5,9.3c9.4,0,15.7-4.2,20.2-13.4v11.3v0.6h0.6h15h0.6v-0.6v-96v-0.6h-0.6h-16L482,48.6L482,48.6z
				 M467.5,132.9c-11.7,0-14.2-12.7-14.2-23.3c0-15.5,5.2-24,14.6-24c4,0,7.7,1.8,10.5,5.1c2.7,3.2,3.6,6.5,3.6,12.6v12.1
				C482,125.2,475.6,132.9,467.5,132.9L467.5,132.9z M355.2,48.6h-0.6h-16H338v0.6v16.7v0.6h0.6h16h0.6v-0.6V49.2V48.6L355.2,48.6z
				 M334.6,48.6h-0.8h-15.3H318l-0.1,0.5l-17.5,67.7L281.8,49l-0.1-0.5h-0.5h-17.6h-0.5L263,49l-16.7,67.6L228.5,49l-0.1-0.5h-0.5
				h-18.4h-0.8l0.2,0.8l26.2,96l0.1,0.5h0.5h17.7h0.5l0.1-0.5l16.8-68.2l18.5,68.2l0.1,0.5h0.5H308h0.5l0.1-0.5l25.6-96L334.6,48.6
				L334.6,48.6z M697.3,72.2c-10.1,0-17.2,2.5-22.2,8c-3.7,4-5.8,9.4-5.8,15.3c0,11.9,7,18.7,22,21.5l12.9,2.6
				c4.5,0.8,7.3,3.3,7.3,6.4c0,5.2-5,8.1-13.8,8.1c-8.3,0-12.2-2.1-15.1-8.3l-0.2-0.4l-0.5,0.1l-15,2.9l-0.7,0.1l0.2,0.7
				c1.7,5.5,3.7,8.4,7.6,11.4c6,4.4,14,6.8,23.1,6.8c19.2,0,31.6-9.3,31.6-23.7c0-11.5-6.4-18.9-18.4-21.2L695,99.3
				c-6.8-1.4-9.7-3.6-9.7-7.4c0-4.3,4.7-7,11.9-7c7.1,0,10.6,2.1,12.4,7.6l0.2,0.5l0.6-0.1l14.4-3l0.7-0.1l-0.2-0.7
				C721.9,78,712.2,72.2,697.3,72.2L697.3,72.2L697.3,72.2z M540.6,72.2c-20,0-33.9,15.4-33.9,37.3c0,9.3,2.4,17.5,7.2,24.4
				c5.8,8.7,14.8,13.4,25.9,13.4c20.2,0,34.3-15.4,34.3-37.5c0-9.3-1.7-15.9-6-22.8C561.6,76.9,552.9,72.2,540.6,72.2L540.6,72.2z
				 M540.4,132.9c-9.9,0-15.3-8.3-15.3-23.3c0-14.9,5.6-23.1,15.6-23.1c12.6,0,15.2,12.4,15.2,22.8
				C555.8,124.6,550.3,132.9,540.4,132.9L540.4,132.9z M404.4,72.2c-9.2,0-15.5,4.6-21.1,15.7V74.2v-0.6h-0.6h-14.5h-0.6v0.6v71v0.6
				h0.6h16h0.6v-0.6v-36.4c0-5.3,0.8-9.6,2.5-13c2.7-5.2,7.5-8.4,12.5-8.4c6.4,0,10.4,5.2,10.4,13.5v44.3v0.6h0.6h16h0.6v-0.6V99.4
				c0-7.4-0.9-12.2-3.1-16.4C421.2,76.6,412.9,72.2,404.4,72.2L404.4,72.2z M671.2,73.6h-0.8h-13.5h-0.5l-0.1,0.5l-13,45.6
				l-11.9-45.6l-0.1-0.5h-0.5h-14.5h-0.5l-0.1,0.5L604,119.6L590.5,74l-0.1-0.5h-0.5h-17H572l0.3,0.8l21.9,71l0.1,0.4h0.5h14.8h0.5
				l0.1-0.5L622.3,98l12.2,47.4l0.1,0.5h0.5h14.4h0.5l0.1-0.5l20.9-71L671.2,73.6L671.2,73.6z M355.2,73.6h-0.6h-16H338v0.6v71v0.6
				h0.6h16h0.6v-0.6v-71V73.6L355.2,73.6z"/>
		</g>
		<path class="st1" d="M793.4,48.1c-7,0-12,3.1-15.6,10v-8.9h-11.1v68.6h11.8V93.3c3.3,5.7,7.7,8.2,14.1,8.2
			c5.9,0,10.3-2.1,13.4-6.3c4-5.3,6-12.5,6-20.7c0-7.7-1.9-14.4-5.5-19.6C803.3,50.3,799.1,48.1,793.4,48.1L793.4,48.1z M720.2,49.2
			L735,74l-17,26.5h10l11.9-18.7l10.8,18.7H764l-17.2-29l14.5-22.3h-9.7L742,64.3l-8.4-15.1L720.2,49.2z M789.5,57.6
			c6.6,0,10.3,6.5,10.3,17.7c0,10.7-3.8,17.1-10.2,17.1s-11.1-5.4-11.1-12.9v-7.3C778.5,63.7,783,57.6,789.5,57.6L789.5,57.6z"/>
	</g>
	<g>
		<path class="st2" d="M84.4,999.1c-8.8,3.7-13.1,1.6-16.9-1l-4.4,15.1c3.8,2.6,8.5,4.7,16.9,0.9L84.4,999.1z"/>
		<path class="st3" d="M55.6,1029.5c-3.8-2.6-8-4.7-16.9-1l4.3-15.2c8.9-3.7,13.1-1.6,17,1L55.6,1029.5L55.6,1029.5z"/>
		<path class="st4" d="M60.8,1011.6c-2.3-1.6-4.8-3-8.3-3c-2.3,0-5.1,0.6-8.6,2.1l4.4-15.1c8.9-3.7,13.1-1.6,17,1L60.8,1011.6z"/>
		<path class="st5" d="M62.4,1015.8c3.8,2.6,8.1,4.6,17,1l-4.4,15.1c-8.9,3.7-13.1,1.6-17-1L62.4,1015.8z"/>
	</g>
</g>
</svg>
